<?xml version="1.0" encoding="utf-8"?>
<!-- Generator: Adobe Illustrator 16.0.0, SVG Export Plug-In . SVG Version: 6.00 Build 0)  -->
<!DOCTYPE svg PUBLIC "-//W3C//DTD SVG 1.1//EN" "http://www.w3.org/Graphics/SVG/1.1/DTD/svg11.dtd">
<svg version="1.1" id="Layer_1" xmlns="http://www.w3.org/2000/svg" xmlns:xlink="http://www.w3.org/1999/xlink" x="0px" y="0px"
	 width="48px" height="40px" viewBox="0 0 48 40" enable-background="new 0 0 48 40" xml:space="preserve">
<title>Twitter-color</title>
<desc>Created with Sketch.</desc>
<g id="Icons">
	<g id="Color-" transform="translate(-300.000000, -164.000000)">
		<path id="Twitter" fill="#00AAEC" d="M348,168.735c-1.764,0.803-3.662,1.346-5.654,1.589c2.034-1.248,3.595-3.227,4.33-5.584
			c-1.904,1.156-4.01,1.996-6.258,2.447c-1.791-1.961-4.353-3.187-7.187-3.187c-5.435,0-9.844,4.521-9.844,10.098
			c0,0.792,0.084,1.56,0.253,2.3c-8.185-0.422-15.439-4.438-20.299-10.554c-0.848,1.497-1.333,3.233-1.333,5.082
			c0,3.501,1.738,6.593,4.381,8.404c-1.611-0.049-3.133-0.508-4.462-1.259v0.124c0,4.894,3.395,8.977,7.903,9.901
			c-0.826,0.236-1.696,0.355-2.595,0.355c-0.634,0-1.253-0.061-1.854-0.18c1.253,4.01,4.888,6.932,9.199,7.01
			c-3.37,2.709-7.618,4.324-12.23,4.324c-0.794,0-1.581-0.046-2.35-0.139c4.358,2.86,9.537,4.533,15.096,4.533
			c18.115,0,28.02-15.385,28.02-28.729c0-0.439-0.01-0.878-0.025-1.309C345.014,172.537,346.684,170.761,348,168.735"/>
	</g>
</g>
</svg>
